<svg width="120" height="120" viewBox="0 0 120 120" xmlns="http://www.w3.org/2000/svg">
  <defs>
    <!-- Perfect circular clipping mask -->
    <clipPath id="circleClip">
      <circle cx="60" cy="60" r="58"/>
    </clipPath>
    
    <linearGradient id="skinGradient" x1="0%" y1="0%" x2="100%" y2="100%">
      <stop offset="0%" style="stop-color:#f7d794;stop-opacity:1" />
      <stop offset="100%" style="stop-color:#e8c078;stop-opacity:1" />
    </linearGradient>
    <linearGradient id="hairGradient" x1="0%" y1="0%" x2="100%" y2="100%">
      <stop offset="0%" style="stop-color:#4a5568;stop-opacity:1" />
      <stop offset="100%" style="stop-color:#2d3748;stop-opacity:1" />
    </linearGradient>
    <linearGradient id="clothingGradient" x1="0%" y1="0%" x2="100%" y2="100%">
      <stop offset="0%" style="stop-color:#059669;stop-opacity:1" />
      <stop offset="100%" style="stop-color:#047857;stop-opacity:1" />
    </linearGradient>
  </defs>
  
  <!-- Background circle with button-like styling -->
  <circle cx="60" cy="60" r="60" fill="#f8fafc" stroke="#e2e8f0" stroke-width="2"/>
  
  <!-- Content clipped to perfect circle -->
  <g clip-path="url(#circleClip)">
    <!-- Professional background -->
    <rect x="0" y="0" width="120" height="120" fill="#f1f5f9"/>
    
    <!-- Clothing/Professional attire -->
    <path d="M20 88 Q30 83, 60 88 Q90 83, 100 88 L100 120 L20 120 Z" fill="url(#clothingGradient)"/>
    <!-- Professional collar and tie -->
    <path d="M45 88 Q52 85, 60 88 Q68 85, 75 88 L75 105 L45 105 Z" fill="#ffffff"/>
    <path d="M58 88 L62 88 L61 105 L59 105 Z" fill="#8b4513"/>
    
    <!-- Hair (short, professional) -->
    <path d="M28 38 Q33 18, 60 22 Q87 18, 92 38 Q90 48, 87 52 Q82 47, 78 50 Q73 42, 68 44 Q63 38, 60 40 Q57 38, 52 44 Q47 42, 42 50 Q38 47, 33 52 Q30 48, 28 38" fill="url(#hairGradient)"/>
    
    <!-- Face (centered headshot) -->
    <ellipse cx="60" cy="52" rx="29" ry="33" fill="url(#skinGradient)"/>
    
    <!-- Eyes (more detailed) -->
    <ellipse cx="49" cy="47" rx="5" ry="6" fill="#ffffff"/>
    <ellipse cx="71" cy="47" rx="5" ry="6" fill="#ffffff"/>
    <circle cx="49" cy="47" r="3.5" fill="#2d3748"/>
    <circle cx="71" cy="47" r="3.5" fill="#2d3748"/>
    <circle cx="49.5" cy="46" r="1" fill="#ffffff"/>
    <circle cx="71.5" cy="46" r="1" fill="#ffffff"/>
    
    <!-- Eyebrows (thicker, more masculine) -->
    <path d="M42 40 Q49 38, 56 40" stroke="#2d3748" stroke-width="2.5" fill="none"/>
    <path d="M64 40 Q71 38, 78 40" stroke="#2d3748" stroke-width="2.5" fill="none"/>
    
    <!-- Nose -->
    <path d="M60 52 L58 60 L60 61 L62 60 Z" fill="#e8c078"/>
    
    <!-- Beard/Facial hair -->
    <path d="M50 67 Q60 75, 70 67 Q68 72, 65 74 Q60 76, 55 74 Q52 72, 50 67" fill="#2d3748"/>
    
    <!-- Mouth (professional expression) -->
    <path d="M54 67 Q60 71, 66 67" stroke="#d97706" stroke-width="2" fill="none"/>
    
    <!-- Subtle shadow for depth -->
    <ellipse cx="60" cy="54" rx="27" ry="31" fill="none" stroke="#00000008" stroke-width="1"/>
  </g>
  
  <!-- Perfect circular border -->
  <circle cx="60" cy="60" r="58" fill="none" stroke="#e2e8f0" stroke-width="4"/>
</svg>